<svg xmlns:dc="http://purl.org/dc/elements/1.1/" xmlns:cc="http://creativecommons.org/ns#" xmlns:rdf="http://www.w3.org/1999/02/22-rdf-syntax-ns#" xmlns:svg="http://www.w3.org/2000/svg" xmlns="http://www.w3.org/2000/svg" xmlns:sodipodi="http://sodipodi.sourceforge.net/DTD/sodipodi-0.dtd" xmlns:inkscape="http://www.inkscape.org/namespaces/inkscape" width="524.46246" height="459.73407" id="svg3913" sodipodi:version="0.32" inkscape:version="0.46" sodipodi:docname="Med presidentskap.svg" inkscape:output_extension="org.inkscape.output.svg.inkscape" version="1.0">
  <defs id="defs3915">
    <inkscape:perspective sodipodi:type="inkscape:persp3d" inkscape:vp_x="0 : 526.18109 : 1" inkscape:vp_y="0 : 1000 : 0" inkscape:vp_z="744.09448 : 526.18109 : 1" inkscape:persp3d-origin="372.04724 : 350.78739 : 1" id="perspective3921"/>
  </defs>
  <sodipodi:namedview id="base" pagecolor="#ffffff" bordercolor="#ffffff" borderopacity="0.0" inkscape:pageopacity="0.0" inkscape:pageshadow="0" inkscape:zoom="1.4142136" inkscape:cx="266.55215" inkscape:cy="163.96045" inkscape:document-units="cm" inkscape:current-layer="Presidentboksen" showgrid="false" inkscape:window-width="1264" inkscape:window-height="750" inkscape:window-x="0" inkscape:window-y="14" units="cm"/>
  <metadata id="metadata3918">
    <rdf:RDF>
      <cc:Work rdf:about="">
        <dc:format>image/svg+xml</dc:format>
        <dc:type rdf:resource="http://purl.org/dc/dcmitype/StillImage"/>
      </cc:Work>
    </rdf:RDF>
  </metadata>
  <g inkscape:label="Layer 1" inkscape:groupmode="layer" id="Stortingssalen" transform="translate(-80.008449,-286.83276)">
    <g id="Aust-Agder">
      <rect inkscape:label="48" y="645.78979" x="190.84703" height="16.983955" width="19.99214" id="nr1" style=""/>
      <rect inkscape:label="48" y="596.76794" x="190.95854" height="16.983955" width="19.99214" id="rect2465" style=""/>
      <rect inkscape:label="48" y="613.75055" x="190.95856" height="16.983955" width="19.99214" id="rect2467" style=""/>
      <rect inkscape:label="48" y="565.71149" x="190.82597" height="16.983955" width="19.99214" id="rect2491" style=""/>
    </g>
    <g id="Sogn og Fjordane">
      <rect style="" id="rect2505" width="19.99214" height="16.983955" x="90.814537" y="548.68469" inkscape:label="48"/>
      <rect inkscape:label="48" y="645.75763" x="90.896996" height="16.983955" width="19.99214" id="rect2449" style=""/>
      <rect inkscape:label="48" y="596.67957" x="90.814537" height="16.983955" width="19.99214" id="rect2481" style=""/>
      <rect inkscape:label="48" y="613.66217" x="90.814552" height="16.983955" width="19.99214" id="rect2483" style=""/>
      <rect inkscape:label="48" y="565.6673" x="90.814552" height="16.983955" width="19.99214" id="rect2507" style=""/>
    </g>
    <g id="Vest-Agder">
      <rect inkscape:label="48" y="548.72888" x="190.82596" height="16.983955" width="19.99214" id="rect2489" style=""/>
      <rect transform="matrix(-0.388939,-0.9212635,0.9212635,-0.388939,0,0)" inkscape:label="48" y="79.903549" x="-521.47888" height="16.983955" width="19.99214" id="rect2657" style=""/>
      <rect transform="matrix(-0.9284198,-0.3715328,0.3715328,-0.9284198,0,0)" inkscape:label="48" y="-412.70377" x="-395.83148" height="16.983955" width="19.99214" id="rect2677" style=""/>
      <rect transform="matrix(-0.9284198,-0.3715328,0.3715328,-0.9284198,0,0)" inkscape:label="48" y="-395.72116" x="-395.83145" height="16.983955" width="19.99214" id="rect2679" style=""/>
      <rect transform="matrix(-0.7104944,-0.7037028,0.7037028,-0.7104944,0,0)" inkscape:label="48" y="-176.92543" x="-508.93854" height="16.983955" width="19.99214" id="rect2697" style=""/>
      <rect transform="matrix(-0.7104944,-0.7037028,0.7037028,-0.7104944,0,0)" inkscape:label="48" y="-159.94283" x="-508.93851" height="16.983955" width="19.99214" id="rect2699" style=""/>
    </g>
    <g id="Nord-Trøndelag">
      <rect transform="matrix(5.3003755e-3,-0.999986,0.999986,5.3003755e-3,0,0)" inkscape:label="48" y="328.59268" x="-330.91541" height="16.983955" width="19.99214" id="rect2599" style=""/>
      <rect transform="matrix(-0.388939,-0.9212635,0.9212635,-0.388939,0,0)" inkscape:label="48" y="80.775772" x="-396.35431" height="16.983955" width="19.99214" id="rect2633" style=""/>
      <rect transform="matrix(-0.388939,-0.9212635,0.9212635,-0.388939,0,0)" inkscape:label="48" y="97.758377" x="-396.35428" height="16.983955" width="19.99214" id="rect2635" style=""/>
      <rect transform="matrix(-0.388939,-0.9212635,0.9212635,-0.388939,0,0)" inkscape:label="48" y="97.562927" x="-421.36075" height="16.983955" width="19.99214" id="rect2643" style=""/>
      <rect transform="matrix(-0.2100475,-0.9776912,0.9776912,-0.2100475,0,0)" inkscape:label="48" y="202.98299" x="-392.68427" height="16.983955" width="19.99214" id="rect2721" style=""/>
      <rect transform="matrix(-0.2100475,-0.9776912,0.9776912,-0.2100475,0,0)" inkscape:label="48" y="219.96561" x="-392.68423" height="16.983955" width="19.99214" id="rect2723" style=""/>
    </g>
    <g id="Sør-Trøndelag">
      <rect transform="matrix(5.3003755e-3,-0.999986,0.999986,5.3003755e-3,0,0)" inkscape:label="48" y="345.57529" x="-330.91537" height="16.983955" width="19.99214" id="rect2601" style=""/>
      <rect transform="matrix(5.3003751e-3,-0.999986,0.999986,5.3003751e-3,0,0)" inkscape:label="48" y="328.24756" x="-305.88907" height="16.983955" width="19.99214" id="rect2629" style=""/>
      <rect transform="matrix(5.3003751e-3,-0.999986,0.999986,5.3003751e-3,0,0)" inkscape:label="48" y="345.23016" x="-305.88904" height="16.983955" width="19.99214" id="rect2631" style=""/>
      <rect transform="matrix(0.2085856,-0.9780041,0.9780041,0.2085856,0,0)" inkscape:label="48" y="432.83051" x="-248.39037" height="16.983955" width="19.99214" id="rect2729" style=""/>
      <rect transform="matrix(0.2085856,-0.9780041,0.9780041,0.2085856,0,0)" inkscape:label="48" y="449.81311" x="-248.39032" height="16.983955" width="19.99214" id="rect2731" style=""/>
      <rect transform="matrix(0.386551,-0.922268,0.922268,0.386551,0,0)" inkscape:label="48" y="516.72864" x="-130.58014" height="16.983955" width="19.99214" id="rect2741" style=""/>
      <rect transform="matrix(0.386551,-0.922268,0.922268,0.386551,0,0)" inkscape:label="48" y="533.71124" x="-130.58009" height="16.983955" width="19.99214" id="rect2743" style=""/>
      <rect transform="matrix(0.386551,-0.922268,0.922268,0.386551,0,0)" inkscape:label="48" y="517.013" x="-155.95384" height="16.983955" width="19.99214" id="rect2761" style=""/>
      <rect transform="matrix(0.386551,-0.922268,0.922268,0.386551,0,0)" inkscape:label="48" y="533.99561" x="-155.9538" height="16.983955" width="19.99214" id="rect2763" style=""/>
      <rect transform="matrix(0.5517754,-0.8339927,0.8339927,0.5517754,0,0)" inkscape:label="48" y="582.34149" x="-49.309319" height="16.983955" width="19.99214" id="rect2781" style=""/>
    </g>
    <g id="Buskerud">
      <rect transform="scale(1,-1)" inkscape:label="48" y="-613.50958" x="499.8913" height="16.983955" width="19.99214" id="rect2565" style=""/>
      <rect inkscape:label="48" y="548.74829" x="499.8913" height="16.983955" width="19.99214" id="rect2587" style=""/>
      <rect inkscape:label="48" y="565.7309" x="499.8913" height="16.983955" width="19.99214" id="rect2589" style=""/>
      <rect transform="matrix(0.386551,-0.922268,0.922268,0.386551,0,0)" inkscape:label="48" y="517.19067" x="-230.92055" height="16.983955" width="19.99214" id="rect2773" style=""/>
      <rect transform="matrix(0.386551,-0.922268,0.922268,0.386551,0,0)" inkscape:label="48" y="534.17328" x="-230.9205" height="16.983955" width="19.99214" id="rect2775" style=""/>
      <rect transform="matrix(0.7165001,-0.697587,0.697587,0.7165001,0,0)" inkscape:label="48" y="625.49976" x="8.8628693" height="16.983955" width="19.99214" id="rect2801" style=""/>
      <rect transform="matrix(0.7165001,-0.697587,0.697587,0.7165001,0,0)" inkscape:label="48" y="642.48236" x="8.862915" height="16.983955" width="19.99214" id="rect2803" style=""/>
      <rect transform="matrix(0.9299808,-0.367608,0.367608,0.9299808,0,0)" inkscape:label="48" y="632.58533" x="268.9537" height="16.983957" width="19.992142" id="rect2837" style=""/>
      <rect transform="matrix(0.9299808,-0.367608,0.367608,0.9299808,0,0)" inkscape:label="48" y="649.56793" x="268.95374" height="16.983957" width="19.992142" id="rect2839" style=""/>
    </g>
    <g id="Akershus">
      <rect inkscape:label="48" y="645.74713" x="474.90613" height="16.983955" width="19.99214" id="rect2511" style=""/>
      <rect inkscape:label="48" y="645.74109" x="499.83163" height="16.983955" width="19.99214" id="rect2517" style=""/>
      <rect transform="scale(1,-1)" inkscape:label="48" y="-630.49219" x="499.8913" height="16.983955" width="19.99214" id="rect2563" style=""/>
      <rect transform="scale(1,-1)" inkscape:label="48" y="-630.448" x="474.92157" height="16.983955" width="19.99214" id="rect2567" style=""/>
      <rect transform="scale(1,-1)" inkscape:label="48" y="-613.46539" x="474.9216" height="16.983955" width="19.99214" id="rect2569" style=""/>
      <rect inkscape:label="48" y="548.79248" x="474.92157" height="16.983955" width="19.99214" id="rect2591" style=""/>
      <rect inkscape:label="48" y="565.77509" x="474.9216" height="16.983955" width="19.99214" id="rect2593" style=""/>
      <rect transform="matrix(5.3003755e-3,-0.999986,0.999986,5.3003755e-3,0,0)" inkscape:label="48" y="329.14569" x="-432.00323" height="16.983955" width="19.99214" id="rect2615" style=""/>
      <rect transform="matrix(5.3003755e-3,-0.999986,0.999986,5.3003755e-3,0,0)" inkscape:label="48" y="346.1283" x="-432.0032" height="16.983955" width="19.99214" id="rect2617" style=""/>
      <rect transform="matrix(-0.388939,-0.9212635,0.9212635,-0.388939,0,0)" inkscape:label="48" y="96.886154" x="-521.47888" height="16.983955" width="19.99214" id="rect2659" style=""/>
      <rect transform="matrix(0.386551,-0.922268,0.922268,0.386551,0,0)" inkscape:label="48" y="517.24371" x="-256.19955" height="16.983955" width="19.99214" id="rect2777" style=""/>
      <rect transform="matrix(0.386551,-0.922268,0.922268,0.386551,0,0)" inkscape:label="48" y="534.22632" x="-256.19952" height="16.983955" width="19.99214" id="rect2779" style=""/>
      <rect transform="matrix(0.7165001,-0.697587,0.697587,0.7165001,0,0)" inkscape:label="48" y="625.70575" x="-15.886597" height="16.983955" width="19.99214" id="rect2813" style=""/>
      <rect transform="matrix(0.7165001,-0.697587,0.697587,0.7165001,0,0)" inkscape:label="48" y="642.68835" x="-15.886551" height="16.983955" width="19.99214" id="rect2815" style=""/>
      <rect transform="matrix(0.9299808,-0.367608,0.367608,0.9299808,0,0)" inkscape:label="48" y="632.52362" x="243.79169" height="16.983957" width="19.992142" id="rect2841" style=""/>
      <rect transform="matrix(0.9299808,-0.367608,0.367608,0.9299808,0,0)" inkscape:label="48" y="649.50623" x="243.79172" height="16.983957" width="19.992142" id="rect2843" style=""/>
    </g>
    <g id="Østfold">
      <rect inkscape:label="48" y="645.6969" x="574.87329" height="16.983955" width="19.99214" id="rect2523" style=""/>
      <rect transform="scale(1,-1)" inkscape:label="48" y="-630.42065" x="574.90759" height="16.983955" width="19.99214" id="rect2551" style=""/>
      <rect transform="scale(1,-1)" inkscape:label="48" y="-613.43805" x="574.90759" height="16.983955" width="19.99214" id="rect2553" style=""/>
      <rect inkscape:label="48" y="548.81982" x="574.90753" height="16.983955" width="19.99214" id="rect2575" style=""/>
      <rect inkscape:label="48" y="565.80243" x="574.90759" height="16.983955" width="19.99214" id="rect2577" style=""/>
      <rect transform="matrix(0.9299808,-0.367608,0.367608,0.9299808,0,0)" inkscape:label="48" y="630.93347" x="344.12061" height="16.983957" width="19.992142" id="rect2821" style=""/>
      <rect transform="matrix(0.9299808,-0.367608,0.367608,0.9299808,0,0)" inkscape:label="48" y="647.91614" x="344.12064" height="16.983957" width="19.992142" id="rect2823" style=""/>
      <rect transform="matrix(0.982473,-0.1864052,0.1864052,0.982473,0,0)" inkscape:label="48" y="600.67267" x="464.74533" height="16.983957" width="19.992142" id="rect2845" style=""/>
      <rect transform="matrix(0.982473,-0.1864052,0.1864052,0.982473,0,0)" inkscape:label="48" y="617.65527" x="464.74536" height="16.983957" width="19.992142" id="rect2847" style=""/>
    </g>
    <g id="Oppland">
      <rect transform="scale(1,-1)" inkscape:label="48" y="-613.46539" x="550.00751" height="16.983955" width="19.99214" id="rect2557" style=""/>
      <rect inkscape:label="48" y="548.79248" x="550.00745" height="16.983955" width="19.99214" id="rect2579" style=""/>
      <rect inkscape:label="48" y="565.77509" x="550.00751" height="16.983955" width="19.99214" id="rect2581" style=""/>
      <rect transform="matrix(0.9299808,-0.367608,0.367608,0.9299808,0,0)" inkscape:label="48" y="631.51215" x="318.89545" height="16.983957" width="19.992142" id="rect2829" style=""/>
      <rect transform="matrix(0.9299808,-0.367608,0.367608,0.9299808,0,0)" inkscape:label="48" y="648.49469" x="318.89548" height="16.983957" width="19.992142" id="rect2831" style=""/>
      <rect transform="matrix(0.982473,-0.1864052,0.1864052,0.982473,0,0)" inkscape:label="48" y="600.85199" x="439.61099" height="16.983957" width="19.992142" id="rect2853" style=""/>
      <rect transform="matrix(0.982473,-0.1864052,0.1864052,0.982473,0,0)" inkscape:label="48" y="617.83459" x="439.61102" height="16.983957" width="19.992142" id="rect2855" style=""/>
    </g>
    <g id="Telemark">
      <rect transform="matrix(-0.9284198,-0.3715328,0.3715328,-0.9284198,0,0)" inkscape:label="48" y="-411.39694" x="-295.63882" height="16.983955" width="19.99214" id="rect2661" style=""/>
      <rect transform="matrix(-0.9284198,-0.3715328,0.3715328,-0.9284198,0,0)" inkscape:label="48" y="-394.41434" x="-295.63879" height="16.983955" width="19.99214" id="rect2663" style=""/>
      <rect transform="matrix(-0.8232439,-0.5676879,0.5676879,-0.8232439,0,0)" inkscape:label="48" y="-291.53046" x="-370.62363" height="16.983955" width="19.99214" id="rect2705" style=""/>
      <rect transform="matrix(-0.8232439,-0.5676879,0.5676879,-0.8232439,0,0)" inkscape:label="48" y="-274.54785" x="-370.6236" height="16.983955" width="19.99214" id="rect2707" style=""/>
      <rect transform="matrix(0.9867242,0.1624047,-0.1624047,0.9867242,0,0)" inkscape:label="48" y="477.20493" x="176.91316" height="16.983957" width="19.992142" id="rect2857" style=""/>
      <rect transform="matrix(0.9867242,0.1624047,-0.1624047,0.9867242,0,0)" inkscape:label="48" y="494.18753" x="176.91319" height="16.983957" width="19.992142" id="rect2859" style=""/>
    </g>
    <g id="Rogaland">
      <rect inkscape:label="48" y="645.75763" x="115.87647" height="16.983955" width="19.99214" id="rect2447" style=""/>
      <rect inkscape:label="48" y="596.76794" x="115.87263" height="16.983955" width="19.99214" id="rect2477" style=""/>
      <rect inkscape:label="48" y="613.75055" x="115.87265" height="16.983955" width="19.99214" id="rect2479" style=""/>
      <rect inkscape:label="48" y="548.72888" x="115.91683" height="16.983955" width="19.99214" id="rect2501" style=""/>
      <rect inkscape:label="48" y="565.71149" x="115.91685" height="16.983955" width="19.99214" id="rect2503" style=""/>
      <rect transform="matrix(-0.9284198,-0.3715328,0.3715328,-0.9284198,0,0)" inkscape:label="48" y="-411.60117" x="-320.19528" height="16.983955" width="19.99214" id="rect2665" style=""/>
      <rect transform="matrix(-0.9284198,-0.3715328,0.3715328,-0.9284198,0,0)" inkscape:label="48" y="-394.61856" x="-320.19525" height="16.983955" width="19.99214" id="rect2667" style=""/>
      <rect transform="matrix(-0.7104944,-0.7037028,0.7037028,-0.7104944,0,0)" inkscape:label="48" y="-176.5215" x="-434.03049" height="16.983955" width="19.99214" id="rect2685" style=""/>
      <rect transform="matrix(-0.7104944,-0.7037028,0.7037028,-0.7104944,0,0)" inkscape:label="48" y="-159.53889" x="-434.03046" height="16.983955" width="19.99214" id="rect2687" style=""/>
      <rect transform="matrix(-0.8232439,-0.5676879,0.5676879,-0.8232439,0,0)" inkscape:label="48" y="-291.21317" x="-395.52847" height="16.983955" width="19.99214" id="rect2709" style=""/>
      <rect transform="matrix(-0.8232439,-0.5676879,0.5676879,-0.8232439,0,0)" inkscape:label="48" y="-274.23056" x="-395.52844" height="16.983955" width="19.99214" id="rect2711" style=""/>
      <rect transform="matrix(0.9867242,0.1624047,-0.1624047,0.9867242,0,0)" inkscape:label="48" y="478.27283" x="201.99147" height="16.983957" width="19.992142" id="rect2865" style=""/>
      <rect transform="matrix(0.9867242,0.1624047,-0.1624047,0.9867242,0,0)" inkscape:label="48" y="495.25543" x="201.9915" height="16.983957" width="19.992142" id="rect2867" style=""/>
    </g>
    <g id="Oslo">
      <rect transform="matrix(5.3003755e-3,-0.999986,0.999986,5.3003755e-3,0,0)" inkscape:label="48" y="328.61536" x="-356.9201" height="16.983955" width="19.99214" id="rect2603" style=""/>
      <rect transform="matrix(5.3003755e-3,-0.999986,0.999986,5.3003755e-3,0,0)" inkscape:label="48" y="345.59796" x="-356.92007" height="16.983955" width="19.99214" id="rect2605" style=""/>
      <rect transform="matrix(-0.388939,-0.9212635,0.9212635,-0.388939,0,0)" inkscape:label="48" y="80.350525" x="-446.44867" height="16.983955" width="19.99214" id="rect2645" style=""/>
      <rect transform="matrix(-0.388939,-0.9212635,0.9212635,-0.388939,0,0)" inkscape:label="48" y="97.33313" x="-446.44864" height="16.983955" width="19.99214" id="rect2647" style=""/>
      <rect transform="matrix(-0.5327204,-0.8462913,0.8462913,-0.5327204,0,0)" inkscape:label="48" y="-34.094997" x="-453.89224" height="16.983955" width="19.99214" id="rect2717" style=""/>
      <rect transform="matrix(-0.5327204,-0.8462913,0.8462913,-0.5327204,0,0)" inkscape:label="48" y="-17.112385" x="-453.89221" height="16.983955" width="19.99214" id="rect2719" style=""/>
      <rect transform="matrix(-0.2100475,-0.9776912,0.9776912,-0.2100475,0,0)" inkscape:label="48" y="202.35889" x="-417.05002" height="16.983955" width="19.99214" id="rect2725" style=""/>
      <rect transform="matrix(-0.2100475,-0.9776912,0.9776912,-0.2100475,0,0)" inkscape:label="48" y="219.34151" x="-417.04999" height="16.983955" width="19.99214" id="rect2727" style=""/>
      <rect transform="matrix(0.2085856,-0.9780041,0.9780041,0.2085856,0,0)" inkscape:label="48" y="433.29355" x="-273.86807" height="16.983955" width="19.99214" id="rect2737" style=""/>
      <rect transform="matrix(0.2085856,-0.9780041,0.9780041,0.2085856,0,0)" inkscape:label="48" y="450.27615" x="-273.86801" height="16.983955" width="19.99214" id="rect2739" style=""/>
      <rect transform="matrix(0.386551,-0.922268,0.922268,0.386551,0,0)" inkscape:label="48" y="516.81372" x="-180.85944" height="16.983955" width="19.99214" id="rect2765" style=""/>
      <rect transform="matrix(0.386551,-0.922268,0.922268,0.386551,0,0)" inkscape:label="48" y="533.79633" x="-180.85939" height="16.983955" width="19.99214" id="rect2767" style=""/>
      <rect transform="matrix(0.5517754,-0.8339927,0.8339927,0.5517754,0,0)" inkscape:label="48" y="582.15668" x="-74.019432" height="16.983955" width="19.99214" id="rect2785" style=""/>
      <rect transform="matrix(0.5517754,-0.8339927,0.8339927,0.5517754,0,0)" inkscape:label="48" y="599.13928" x="-74.019379" height="16.983955" width="19.99214" id="rect2787" style=""/>
      <rect transform="matrix(0.7165001,-0.697587,0.697587,0.7165001,0,0)" inkscape:label="48" y="624.82941" x="58.983383" height="16.983955" width="19.99214" id="rect2793" style=""/>
      <rect transform="matrix(0.7165001,-0.697587,0.697587,0.7165001,0,0)" inkscape:label="48" y="641.81201" x="58.983429" height="16.983955" width="19.99214" id="rect2795" style=""/>
      <rect transform="matrix(-0.838763,0.5444967,-0.5444967,-0.838763,0,0)" inkscape:label="48" y="-667.07324" x="-206.79204" height="16.983957" width="19.992142" id="rect2883" style=""/>
    </g>
    <g id="Nordland">
      <rect inkscape:label="48" y="645.78528" x="524.9339" height="16.983955" width="19.99214" id="rect2519" style=""/>
      <rect inkscape:label="48" y="645.74115" x="549.85944" height="16.983955" width="19.99214" id="rect2521" style=""/>
      <rect transform="scale(1,-1)" inkscape:label="48" y="-630.448" x="550.00745" height="16.983955" width="19.99214" id="rect2555" style=""/>
      <rect transform="scale(1,-1)" inkscape:label="48" y="-630.49219" x="524.86096" height="16.983955" width="19.99214" id="rect2559" style=""/>
      <rect transform="scale(1,-1)" inkscape:label="48" y="-613.50958" x="524.86102" height="16.983955" width="19.99214" id="rect2561" style=""/>
      <rect inkscape:label="48" y="548.74829" x="524.86096" height="16.983955" width="19.99214" id="rect2583" style=""/>
      <rect inkscape:label="48" y="565.7309" x="524.86102" height="16.983955" width="19.99214" id="rect2585" style=""/>
      <rect transform="matrix(0.9299808,-0.367608,0.367608,0.9299808,0,0)" inkscape:label="48" y="632.09082" x="293.67035" height="16.983957" width="19.992142" id="rect2833" style=""/>
      <rect transform="matrix(0.9299808,-0.367608,0.367608,0.9299808,0,0)" inkscape:label="48" y="649.07343" x="293.67038" height="16.983957" width="19.992142" id="rect2835" style=""/>
      <rect transform="matrix(0.9799708,-0.1991411,0.1991411,0.9799708,0,0)" inkscape:label="48" y="615.2207" x="405.82953" height="16.983957" width="19.992142" id="rect2881" style=""/>
      <rect transform="matrix(-0.8238078,0.5668693,-0.5668693,-0.8238078,0,0)" inkscape:label="48" y="-671.7829" x="-163.70284" height="16.983957" width="19.992142" id="rect2885" style=""/>
    </g>
    <g id="Vestfold">
      <rect transform="matrix(0.5517754,-0.8339927,0.8339927,0.5517754,0,0)" inkscape:label="48" y="599.3241" x="-49.309273" height="16.983955" width="19.99214" id="rect2783" style=""/>
      <rect transform="matrix(0.7165001,-0.697587,0.697587,0.7165001,0,0)" inkscape:label="48" y="624.18176" x="84.03949" height="16.983955" width="19.99214" id="rect2789" style=""/>
      <rect transform="matrix(0.7165001,-0.697587,0.697587,0.7165001,0,0)" inkscape:label="48" y="641.16437" x="84.039536" height="16.983955" width="19.99214" id="rect2791" style=""/>
      <rect transform="matrix(0.8341938,-0.5514714,0.5514714,0.8341938,0,0)" inkscape:label="48" y="642.64978" x="207.21159" height="16.983955" width="19.99214" id="rect2817" style=""/>
      <rect transform="matrix(0.8341938,-0.5514714,0.5514714,0.8341938,0,0)" inkscape:label="48" y="659.63239" x="207.21162" height="16.983955" width="19.99214" id="rect2819" style=""/>
      <rect transform="matrix(0.7171842,-0.6968837,0.6968837,0.7171842,0,0)" inkscape:label="48" y="624.85455" x="109.06014" height="16.983957" width="19.992142" id="rect2889" style=""/>
      <rect transform="matrix(0.5653366,-0.8248603,0.8248603,0.5653366,0,0)" inkscape:label="48" y="598.61774" x="-15.803528" height="16.983957" width="19.992142" id="rect2891" style=""/>
    </g>
    <g id="Troms">
      <rect transform="matrix(-0.388939,-0.9212635,0.9212635,-0.388939,0,0)" inkscape:label="48" y="80.580322" x="-421.36078" height="16.983955" width="19.99214" id="rect2641" style=""/>
      <rect transform="matrix(-0.6880021,-0.7257087,0.7257087,-0.6880021,0,0)" inkscape:label="48" y="-163.32864" x="-413.73499" height="16.983955" width="19.99214" id="rect2681" style=""/>
      <rect transform="matrix(-0.6880021,-0.7257087,0.7257087,-0.6880021,0,0)" inkscape:label="48" y="-146.34604" x="-413.73495" height="16.983955" width="19.99214" id="rect2683" style=""/>
      <rect transform="matrix(-0.5327204,-0.8462913,0.8462913,-0.5327204,0,0)" inkscape:label="48" y="-34.660141" x="-428.57486" height="16.983955" width="19.99214" id="rect2713" style=""/>
      <rect transform="matrix(-0.5327204,-0.8462913,0.8462913,-0.5327204,0,0)" inkscape:label="48" y="-17.677532" x="-428.57483" height="16.983955" width="19.99214" id="rect2715" style=""/>
      <rect transform="matrix(-0.5447117,-0.8386234,0.8386234,-0.5447117,0,0)" inkscape:label="48" y="-40.284626" x="-404.00928" height="16.983957" width="19.992142" id="rect2893" style=""/>
      <rect transform="matrix(-0.7073298,-0.7068837,0.7068837,-0.7073298,0,0)" inkscape:label="48" y="-158.15779" x="-384.93915" height="16.983957" width="19.992144" id="rect2895" style=""/>
    </g>
    <g id="Møre og Romsdal">
      <rect transform="matrix(5.3003753e-3,-0.999986,0.999986,5.3003753e-3,0,0)" inkscape:label="48" y="328.7865" x="-381.00479" height="16.983955" width="19.99214" id="rect2607" style=""/>
      <rect transform="matrix(5.3003751e-3,-0.999986,0.999986,5.3003751e-3,0,0)" inkscape:label="48" y="345.7691" x="-381.00479" height="16.983955" width="19.99214" id="rect2609" style=""/>
      <rect transform="matrix(0.386551,-0.922268,0.922268,0.386551,0,0)" inkscape:label="48" y="517.12445" x="-205.83875" height="16.983955" width="19.99214" id="rect2769" style=""/>
      <rect transform="matrix(0.386551,-0.922268,0.922268,0.386551,0,0)" inkscape:label="48" y="534.10706" x="-205.8387" height="16.983955" width="19.99214" id="rect2771" style=""/>
      <rect transform="matrix(0.7165001,-0.697587,0.697587,0.7165001,0,0)" inkscape:label="48" y="624.91547" x="33.857285" height="16.983955" width="19.99214" id="rect2797" style=""/>
      <rect transform="matrix(0.7165001,-0.697587,0.697587,0.7165001,0,0)" inkscape:label="48" y="641.89807" x="33.85733" height="16.983955" width="19.99214" id="rect2799" style=""/>
      <rect transform="matrix(0.5268033,-0.8499872,0.8499872,0.5268033,0,0)" inkscape:label="48" y="587.3656" x="-118.13641" height="16.983957" width="19.992142" id="rect2887" style=""/>
      <rect transform="matrix(-0.1531417,0.9882042,-0.9882042,-0.1531417,0,0)" inkscape:label="48" y="-442.12036" x="304.29993" height="16.983957" width="19.992142" id="rect2897" style=""/>
    </g>
    <g id="Hordaland">
      <rect inkscape:label="48" y="645.77972" x="140.87202" height="16.983955" width="19.99214" id="rect2443" style=""/>
      <rect inkscape:label="48" y="596.72375" x="140.84235" height="16.983955" width="19.99214" id="rect2473" style=""/>
      <rect inkscape:label="48" y="613.70636" x="140.84236" height="16.983955" width="19.99214" id="rect2475" style=""/>
      <rect inkscape:label="48" y="548.72888" x="140.88655" height="16.983955" width="19.99214" id="rect2497" style=""/>
      <rect inkscape:label="48" y="565.71149" x="140.88657" height="16.983955" width="19.99214" id="rect2499" style=""/>
      <rect transform="matrix(-0.388939,-0.9212635,0.9212635,-0.388939,0,0)" inkscape:label="48" y="80.195801" x="-471.47232" height="16.983955" width="19.99214" id="rect2649" style=""/>
      <rect transform="matrix(-0.388939,-0.9212635,0.9212635,-0.388939,0,0)" inkscape:label="48" y="97.178406" x="-471.47229" height="16.983955" width="19.99214" id="rect2651" style=""/>
      <rect transform="matrix(-0.9284198,-0.3715328,0.3715328,-0.9284198,0,0)" inkscape:label="48" y="-411.82941" x="-345.53113" height="16.983955" width="19.99214" id="rect2669" style=""/>
      <rect transform="matrix(-0.9284198,-0.3715328,0.3715328,-0.9284198,0,0)" inkscape:label="48" y="-394.8468" x="-345.5311" height="16.983955" width="19.99214" id="rect2671" style=""/>
      <rect transform="matrix(-0.7104944,-0.7037028,0.7037028,-0.7104944,0,0)" inkscape:label="48" y="-175.93326" x="-458.78235" height="16.983955" width="19.99214" id="rect2689" style=""/>
      <rect transform="matrix(-0.7104944,-0.7037028,0.7037028,-0.7104944,0,0)" inkscape:label="48" y="-158.95065" x="-458.78232" height="16.983955" width="19.99214" id="rect2691" style=""/>
      <rect transform="matrix(0.9867242,0.1624047,-0.1624047,0.9867242,0,0)" inkscape:label="48" y="488.31219" x="227.41759" height="16.983957" width="19.992142" id="rect2869" style=""/>
      <rect transform="matrix(0.8265744,0.5628275,-0.5628275,0.8265744,0,0)" inkscape:label="48" y="268.25232" x="398.67712" height="16.983957" width="19.992142" id="rect2871" style=""/>
      <rect transform="matrix(0.1351332,0.9908274,-0.9908274,0.1351332,0,0)" inkscape:label="48" y="-260.57645" x="405.14502" height="16.983957" width="19.992142" id="rect2875" style=""/>
      <rect transform="matrix(0.5666627,0.8239499,-0.8239499,0.5666627,0,0)" inkscape:label="48" y="27.602074" x="458.53012" height="16.983957" width="19.992142" id="rect2899" style=""/>
    </g>
    <g id="Regjeringen">
      <rect style="" id="rect2621" width="19.99214" height="16.983955" x="-457.01617" y="346.21643" inkscape:label="48" transform="matrix(5.3003757e-3,-0.999986,0.999986,5.3003757e-3,0,0)"/>
      <rect style="" id="rect2619" width="19.99214" height="16.983955" x="-457.01617" y="329.23383" inkscape:label="48" transform="matrix(5.3003757e-3,-0.999986,0.999986,5.3003757e-3,0,0)"/>
      <rect inkscape:label="48" y="645.82196" x="215.89081" height="16.983955" width="19.99214" id="rect2453" style=""/>
      <rect inkscape:label="48" y="596.79535" x="215.85866" height="16.983955" width="19.99214" id="rect2455" style=""/>
      <rect style="" id="rect2487" width="19.99214" height="16.983955" x="215.92825" y="565.75568" inkscape:label="48"/>
      <rect inkscape:label="48" y="613.77795" x="215.85867" height="16.983955" width="19.99214" id="rect2457" style=""/>
      <rect inkscape:label="48" y="548.77307" x="215.92824" height="16.983955" width="19.99214" id="rect2485" style=""/>
      <rect transform="scale(1,-1)" inkscape:label="48" y="-630.53638" x="449.86349" height="16.983955" width="19.99214" id="rect2571" style=""/>
      <rect transform="scale(1,-1)" inkscape:label="48" y="-613.55377" x="449.86349" height="16.983955" width="19.99214" id="rect2573" style=""/>
      <rect inkscape:label="48" y="548.7041" x="449.86349" height="16.983955" width="19.99214" id="rect2595" style=""/>
      <rect inkscape:label="48" y="565.68671" x="449.86349" height="16.983955" width="19.99214" id="rect2597" style=""/>
      <rect transform="matrix(-0.7104944,-0.7037028,0.7037028,-0.7104944,0,0)" inkscape:label="48" y="-176.47337" x="-534.44104" height="16.983955" width="19.99214" id="rect2701" style=""/>
      <rect transform="matrix(-0.7104944,-0.7037028,0.7037028,-0.7104944,0,0)" inkscape:label="48" y="-159.49077" x="-534.44104" height="16.983955" width="19.99214" id="rect2703" style=""/>
      <rect transform="matrix(0.7165001,-0.697587,0.697587,0.7165001,0,0)" inkscape:label="48" y="625.86011" x="-41.449318" height="16.983955" width="19.99214" id="rect2809" style=""/>
      <rect transform="matrix(0.7165001,-0.697587,0.697587,0.7165001,0,0)" inkscape:label="48" y="642.84271" x="-41.44928" height="16.983955" width="19.99214" id="rect2811" style=""/>
      <rect transform="matrix(0.3944218,0.9189295,-0.9189295,0.3944218,0,0)" inkscape:label="48" y="-102.15832" x="528" height="16.983957" width="19.992142" id="rect2873" style=""/>
      <rect transform="matrix(0.3678069,-0.9299022,0.9299022,0.3678069,0,0)" inkscape:label="48" y="520.31256" x="-293.0405" height="16.983957" width="19.992142" id="rect2877" style=""/>
      <rect transform="matrix(-0.9370985,0.3490651,-0.3490651,-0.9370985,0,0)" inkscape:label="48" y="-653.93103" x="-251.2285" height="16.983957" width="19.992142" id="rect2879" style=""/>
      <rect transform="matrix(0.9239461,0.3825228,-0.3825228,0.9239461,0,0)" inkscape:label="48" y="382.87027" x="406.4541" height="16.983957" width="19.992142" id="rect2901" style=""/>
    </g>

      <g id="Finnmark">
        <rect transform="matrix(5.3003755e-3,-0.999986,0.999986,5.3003755e-3,0,0)" inkscape:label="48" y="329.01288" x="-406.98978" height="16.983955" width="19.99214" id="rect2611" style=""/>
        <rect transform="matrix(5.3003755e-3,-0.999986,0.999986,5.3003755e-3,0,0)" inkscape:label="48" y="345.99548" x="-406.98978" height="16.983955" width="19.99214" id="rect2613" style=""/>
        <rect transform="matrix(-0.388939,-0.9212635,0.9212635,-0.388939,0,0)" inkscape:label="48" y="80.041077" x="-496.49597" height="16.983955" width="19.99214" id="rect2653" style=""/>
        <rect transform="matrix(-0.388939,-0.9212635,0.9212635,-0.388939,0,0)" inkscape:label="48" y="97.023682" x="-496.49594" height="16.983955" width="19.99214" id="rect2655" style=""/>
        <rect transform="matrix(-0.7104944,-0.7037028,0.7037028,-0.7104944,0,0)" inkscape:label="48" y="-159.8244" x="-484.27847" height="16.983955" width="19.99214" id="rect2695" style=""/>
      </g>
      <g id="Hedmark">
        <rect inkscape:label="48" y="645.72552" x="165.86757" height="16.983955" width="19.99214" id="rect2445" style=""/>
        <rect inkscape:label="48" y="596.72375" x="165.81206" height="16.983955" width="19.99214" id="rect2469" style=""/>
        <rect inkscape:label="48" y="613.70636" x="165.81209" height="16.983955" width="19.99214" id="rect2471" style=""/>
        <rect inkscape:label="48" y="548.77307" x="165.90044" height="16.983955" width="19.99214" id="rect2493" style=""/>
        <rect inkscape:label="48" y="565.75568" x="165.90045" height="16.983955" width="19.99214" id="rect2495" style=""/>
        <rect transform="matrix(-0.9284198,-0.3715328,0.3715328,-0.9284198,0,0)" inkscape:label="48" y="-412.24335" x="-370.73935" height="16.983955" width="19.99214" id="rect2673" style=""/>
        <rect transform="matrix(-0.9284198,-0.3715328,0.3715328,-0.9284198,0,0)" inkscape:label="48" y="-395.26074" x="-370.73932" height="16.983955" width="19.99214" id="rect2675" style=""/>
        <rect transform="matrix(-0.7104944,-0.7037028,0.7037028,-0.7104944,0,0)" inkscape:label="48" y="-176.80701" x="-484.2785" height="16.983955" width="19.99214" id="rect2693" style=""/>
      </g>
	  
	  <g id="Stenografer" title="Stenografer">
        <rect transform="matrix(0,-1,1,0,0,0)" inkscape:label="48" y="279.14896" x="-695.67285" height="16.983955" width="19.99214" id="rect4111" style=""/>
        <rect transform="matrix(0,-1,1,0,0,0)" inkscape:label="48" y="389.83466" x="-694.98926" height="16.983955" width="19.99214" id="rect4113" style=""/>
     </g>
     <g id="Presidentboksen">
        <rect style="opacity:1;fill:#00ff00;fill-opacity:1;fill-rule:nonzero;stroke:#000000;stroke-width:1.60000002;stroke-miterlimit:4;stroke-dasharray:none;stroke-opacity:1" id="stortingspresident" title="stortingspresident" width="19.99214" height="16.983955" x="-745.54541" y="334.60605" inkscape:label="48" transform="matrix(0,-1,1,0,0,0)"/>
	  <rect style="opacity:1;fill:#b3b3b3;fill-opacity:1;fill-rule:nonzero;stroke:#000000;stroke-width:1.60000002000000000;stroke-miterlimit:4;stroke-dasharray:none;stroke-opacity:1" id="stortingssekreter" title="stortingssekreter" width="19.99214" height="16.983955" x="-745.76685" y="389.56702" inkscape:label="48" transform="matrix(0,-1,1,0,0,0)"/>
      <rect style="opacity:1;fill:#b3b3b3;fill-opacity:1;fill-rule:nonzero;stroke:#000000;stroke-width:1.60000002000000000;stroke-miterlimit:4;stroke-dasharray:none;stroke-opacity:1" id="talerstol" title="talerstol"  width="19.99214" height="16.983955" x="-745.75049" y="279.11768" inkscape:label="48" transform="matrix(0,-1,1,0,0,0)"/>
	  
      <path id="path4139" d="M 250.02803,708.51078 C 435.90973,708.50804 435.90973,708.50804 435.90973,708.50804" style="fill:none;fill-rule:evenodd;stroke:#000000;stroke-width:1.00106299px;stroke-linecap:butt;stroke-linejoin:miter;stroke-opacity:1"/>
      <path id="path4141" d="M 436.40966,708.00658 C 436.40966,715.32206 436.40966,715.27487 436.40966,715.27487" style="fill:none;fill-rule:evenodd;stroke:#000000;stroke-width:1.03341162px;stroke-linecap:butt;stroke-linejoin:miter;stroke-opacity:1"/>
      <path id="path4143" d="M 249.5645,708.00926 C 249.5645,715.32474 249.5645,715.27755 249.5645,715.27755" style="fill:none;fill-rule:evenodd;stroke:#000000;stroke-width:1.03341162px;stroke-linecap:butt;stroke-linejoin:miter;stroke-opacity:1"/>
    </g>
	
    <g id="Diplomatboks" title="Diplomatboks">
      <path id="path4183" d="M 80.852961,727.8098 C 231.65871,727.80702 231.65871,727.80702 231.65871,727.80702" style="fill:none;fill-rule:evenodd;stroke:#000000;stroke-width:0.90757304px;stroke-linecap:butt;stroke-linejoin:miter;stroke-opacity:1"/>
      <path id="path4185" d="M 232.0643,727.29899 C 232.0643,734.71041 232.0643,734.66261 232.0643,734.66261" style="fill:none;fill-rule:evenodd;stroke:#000000;stroke-width:0.93690062px;stroke-linecap:butt;stroke-linejoin:miter;stroke-opacity:1"/>
      <path id="path4187" d="M 80.476899,727.3017 C 80.476899,734.71313 80.476899,734.66532 80.476899,734.66532" style="fill:none;fill-rule:evenodd;stroke:#000000;stroke-width:0.93690062px;stroke-linecap:butt;stroke-linejoin:miter;stroke-opacity:1"/>
    </g>
    <g id="Presseboks" title="Presseboks">
      <path id="path4189" d="M 452.79112,725.68848 C 603.59687,725.6857 603.59687,725.6857 603.59687,725.6857" style="fill:none;fill-rule:evenodd;stroke:#000000;stroke-width:0.90757304px;stroke-linecap:butt;stroke-linejoin:miter;stroke-opacity:1"/>
      <path id="path4191" d="M 604.00246,725.17767 C 604.00246,732.58909 604.00246,732.54129 604.00246,732.54129" style="fill:none;fill-rule:evenodd;stroke:#000000;stroke-width:0.93690062px;stroke-linecap:butt;stroke-linejoin:miter;stroke-opacity:1"/>
      <path id="path4193" d="M 452.41506,725.18038 C 452.41506,732.59181 452.41506,732.544 452.41506,732.544" style="fill:none;fill-rule:evenodd;stroke:#000000;stroke-width:0.93690062px;stroke-linecap:butt;stroke-linejoin:miter;stroke-opacity:1"/>
    </g>
  </g>
</svg>